# xmcd
#
# Track frame offsets: 
#        150
#        20857
#        45982
#        66004
#        88534
#        120974
#        138672
#        160907
#        178492
#        198589
#        215612
#        238887
#        259814
#
# Disc length: 4000 seconds
#
# Revision: 17
# Processed by: cddbd v1.5.2PL0 Copyright (c) Steve Scherf et al.
# Submitted via: ExactAudioCopy v1.0b6
#
DISCID=c10f9e0d
DTITLE=Sting - Nothing Like The Sun (1998 Remaster)
DYEAR=1987
DGENRE=Jazz
TTITLE0=The Lazarus Heart
TTITLE1=Be Still My Beating Heart
TTITLE2=Englishman In New York
TTITLE3=History Will Teach Us Nothing
TTITLE4=They Dance Alone (Cueca Solo)
TTITLE5=Fragile
TTITLE6=We'll Be Together
TTITLE7=Straight To My Heart
TTITLE8=Rock Steady
TTITLE9=Sister Moon
TTITLE10=Little Wing
TTITLE11=The Secret Marriage
TTITLE12=Englishman In New York
EXTD=
EXTT0=
EXTT1=
EXTT2=
EXTT3=
EXTT4=
EXTT5=
EXTT6=
EXTT7=
EXTT8=
EXTT9=
EXTT10=
EXTT11=
EXTT12=
PLAYORDER=
